<svg width="18" height="23" viewBox="0 0 18 23" version="1.1" xmlns="http://www.w3.org/2000/svg" xmlns:xlink="http://www.w3.org/1999/xlink">
<title>android</title>
<desc>Created using Figma</desc>
<g id="Canvas" transform="translate(-2584 -5975)">
<g id="android">
<g id="Fill-1">
<use xlink:href="#path0_fill" transform="translate(2584 5975)" fill="#FFFFFF"/>
</g>
</g>
</g>
<defs>
<path id="path0_fill" fill-rule="evenodd" d="M 13.1023 0.0869141C 13.115 0.10791 13.1235 0.131348 13.1274 0.15625C 13.1331 0.19043 13.1304 0.227051 13.1187 0.262207C 13.1118 0.283203 13.1018 0.303711 13.0889 0.322754L 11.9492 1.99219C 13.7607 2.84326 14.8384 4.11328 15 6L 3 6C 3.16138 4.11328 4.29102 2.84326 6.10229 1.99219L 4.96289 0.322754C 4.93286 0.278809 4.91943 0.228516 4.92163 0.180664C 4.92432 0.121094 4.95142 0.065918 5.00049 0.0317383C 5.08887 -0.0297852 5.21533 0.000488281 5.28296 0.100098L 6.46655 1.83447C 7.24658 1.52441 8.11304 1.35156 9.02588 1.35156C 9.93872 1.35156 10.8052 1.52441 11.5852 1.83447L 12.7688 0.100098C 12.8362 0.000488281 12.9629 -0.0297852 13.0513 0.0317383C 13.0725 0.0463867 13.0896 0.0654297 13.1023 0.0869141ZM 3 17C 3 17.6025 3.4939 18.0576 4.09082 18.0576L 4.90918 18.0576L 4.90918 21.3662C 4.90918 22.1514 5.37085 23 6.13647 23C 6.9021 23 7.36353 22.1514 7.36353 21.3662L 7.36353 18.0576L 10.6365 18.0576L 10.6365 21.3662C 10.6365 22.1514 11.0981 23 11.8635 23C 12.6292 23 13.0908 22.1514 13.0908 21.3662L 13.0908 18.0576L 13.9092 18.0576C 14.5063 18.0576 15 17.6025 15 17L 15 7L 3 7L 3 17ZM 0 8.70557C 0 8.14941 0.231201 7.66943 0.56665 7.44336C 0.697754 7.35498 0.844727 7.30566 1 7.30566C 1.55225 7.30566 2 7.93213 2 8.70557L 2 14.1763C 2 14.9497 1.55225 15.5767 1 15.5767C 0.447754 15.5767 0 14.9497 0 14.1763L 0 8.70557ZM 16 8.70557C 16 7.93213 16.4478 7.30566 16.9998 7.30566C 17.5522 7.30566 18 7.93213 18 8.70557L 18 14.1763C 18 14.9497 17.5522 15.5767 16.9998 15.5767C 16.7888 15.5767 16.5933 15.4854 16.4319 15.3291C 16.3235 15.2241 16.2307 15.0898 16.1592 14.9346C 16.0586 14.7158 16 14.4556 16 14.1763L 16 8.70557ZM 6.42407 4.62402C 6.04736 4.62402 5.7417 4.31543 5.7417 3.93506C 5.7417 3.55469 6.04736 3.24609 6.42407 3.24609C 6.63403 3.24609 6.82178 3.3418 6.94702 3.49268C 7.04663 3.6123 7.10645 3.7666 7.10645 3.93506C 7.10645 4.31543 6.80103 4.62402 6.42407 4.62402ZM 11.0305 3.93506C 11.0305 4.31543 11.3362 4.62402 11.7129 4.62402C 12.0898 4.62402 12.3953 4.31543 12.3953 3.93506C 12.3953 3.55469 12.0898 3.24609 11.7129 3.24609C 11.3362 3.24609 11.0305 3.55469 11.0305 3.93506Z"/>
</defs>
</svg>
