<svg width="22" height="22" viewBox="0 0 22 22" version="1.1" xmlns="http://www.w3.org/2000/svg" xmlns:xlink="http://www.w3.org/1999/xlink">
<title>svg</title>
<desc>Created using Figma</desc>
<g id="Canvas" transform="translate(-2664 -887)">
<g id="svg">
<g id="Shape">
<use xlink:href="#path0_fill" transform="translate(2664 887)" fill="#A0B0B9"/>
</g>
</g>
</g>
<defs>
<path id="path0_fill" fill-rule="evenodd" d="M 12.7368 8.79999L 12.7368 0C 17.8547 0 22 3.93799 22 8.79999L 12.7368 8.79999ZM 22 9.90002C 22 11.924 21.2705 13.794 20.0547 15.279C 20.8884 15.983 21.4211 17.006 21.4211 18.15C 21.4211 20.273 19.6033 22 17.3684 22C 15.3306 22 13.6399 20.57 13.3621 18.7L 10.9536 18.7C 10.6758 20.57 8.98535 22 6.94727 22C 4.71265 22 2.89478 20.273 2.89478 18.15C 2.89478 16.687 3.75146 15.411 5.02515 14.762C 4.75903 14.377 2.57056 9.90002 2.57056 9.90002L 0 9.90002L 0 7.70001L 4.04102 7.70001L 5.14111 9.90002L 22 9.90002ZM 6.94727 19.8C 5.98633 19.8 5.21045 19.063 5.21045 18.15C 5.21045 17.237 5.98633 16.5 6.94727 16.5C 7.90845 16.5 8.68408 17.237 8.68408 18.15C 8.68408 19.063 7.90845 19.8 6.94727 19.8ZM 15.6316 18.15C 15.6316 19.063 16.4075 19.8 17.3684 19.8C 18.3296 19.8 19.1052 19.063 19.1052 18.15C 19.1052 17.237 18.3296 16.5 17.3684 16.5C 16.4075 16.5 15.6316 17.237 15.6316 18.15Z"/>
</defs>
</svg>
