<svg width="22" height="22" viewBox="0 0 22 22" version="1.1" xmlns="http://www.w3.org/2000/svg" xmlns:xlink="http://www.w3.org/1999/xlink">
<title>svg</title>
<desc>Created using Figma</desc>
<g id="Canvas" transform="translate(-2664 -763)">
<g id="svg">
<g id="Shape">
<use xlink:href="#path0_fill" transform="translate(2664 763)" fill="#A0B0B9"/>
</g>
</g>
</g>
<defs>
<path id="path0_fill" fill-rule="evenodd" d="M 16.21 8.08209L 11.8301 0.486328C 11.6399 0.162109 11.3201 0 11 0C 10.6799 0 10.3601 0.162109 10.1699 0.497925L 5.79004 8.08209L 1 8.08209C 0.449951 8.08209 0 8.60315 0 9.23999C 0 9.34424 0.0100098 9.44843 0.0400391 9.55261L 2.58008 20.2863C 2.81006 21.259 3.58008 21.9769 4.5 21.9769L 17.5 21.9769C 18.4199 21.9769 19.1899 21.259 19.4299 20.2863L 21.97 9.55261L 22 9.23999C 22 8.60315 21.55 8.08209 21 8.08209L 16.21 8.08209ZM 8 8.08209L 11 2.98737L 14 8.08209L 8 8.08209ZM 9 15.0295C 9 16.3032 9.8999 17.3453 11 17.3453C 12.1001 17.3453 13 16.3032 13 15.0295C 13 13.7558 12.1001 12.7137 11 12.7137C 9.8999 12.7137 9 13.7558 9 15.0295Z"/>
</defs>
</svg>
