<svg width="60" height="60" viewBox="0 0 60 60" version="1.1" xmlns="http://www.w3.org/2000/svg" xmlns:xlink="http://www.w3.org/1999/xlink">
<title>Group</title>
<desc>Created using Figma</desc>
<g id="Canvas" transform="translate(-2537 -2334)">
<g id="Group">
<g id="backgroundColor">
<use xlink:href="#path0_fill" transform="translate(2537 2334)" fill="#E2F8FF"/>
</g>
<g id="calen">
<g id="Shape">
<use xlink:href="#path1_fill" transform="translate(2553 2360)" fill="#93E5FF"/>
</g>
<g id="Shape">
<use xlink:href="#path2_fill" transform="translate(2553 2352)" fill="#00C2FF"/>
</g>
<g id="Rectangle-path">
<use xlink:href="#path3_fill" transform="translate(2558 2350)" fill="#00C2FF"/>
</g>
<g id="Rectangle-path">
<use xlink:href="#path3_fill" transform="translate(2573 2350)" fill="#00C2FF"/>
</g>
</g>
</g>
</g>
<defs>
<path id="path0_fill" fill-rule="evenodd" d="M 0 30C 0 13.4315 13.4315 0 30 0C 46.5685 0 60 13.4315 60 30C 60 46.5685 46.5685 60 30 60C 13.4315 60 0 46.5685 0 30Z"/>
<path id="path1_fill" d="M 0 0L 28 0L 28 16.005C 28 17.107 27.1 18 26.009 18L 1.99 18C 0.891 18 0 17.107 0 16.005L 0 0Z"/>
<path id="path2_fill" fill-rule="evenodd" d="M 1.99097 0C 0.899902 0 0 0.897949 0 2.0061L 0 7L 28 7L 28 2.0061C 28 0.886963 27.1089 0 26.01 0L 1.99097 0ZM 11.9431 19.582L 14 18.5L 16.0571 19.582C 16.543 19.8369 16.864 19.605 16.771 19.063L 16.3782 16.7729L 18.042 15.1499C 18.4351 14.7668 18.314 14.3909 17.769 14.312L 15.469 13.9768L 14.4412 11.8928C 14.199 11.4019 13.803 11.3999 13.5591 11.8928L 12.531 13.9768L 10.231 14.312C 9.68799 14.3899 9.56396 14.7659 9.95801 15.1499L 11.6221 16.7729L 11.229 19.063C 11.137 19.604 11.4561 19.8379 11.9431 19.582Z"/>
<path id="path3_fill" d="M 0 1C 0 0.447715 0.447715 0 1 0L 2 0C 2.55228 0 3 0.447715 3 1L 3 3C 3 3.55228 2.55228 4 2 4L 1 4C 0.447715 4 0 3.55228 0 3L 0 1Z"/>
</defs>
</svg>
