<svg width="17" height="20" viewBox="0 0 17 20" version="1.1" xmlns="http://www.w3.org/2000/svg" xmlns:xlink="http://www.w3.org/1999/xlink">
<title>Icone-Depart</title>
<desc>Created using Figma</desc>
<g id="Canvas" transform="translate(-2533 -262)">
<g id="Icone-Depart">
<use xlink:href="#path0_fill" transform="translate(2533 262)" fill="#1BA6D2"/>
</g>
</g>
<defs>
<path id="path0_fill" fill-rule="evenodd" d="M 3.99731 4.01138L 3.99731 0L 4.99707 0L 4.99707 4.01138L 3.99731 4.01138ZM 14.0068 4.97678L 14.0103 3.01105L 16.9954 3.01385L 16.9988 20L 0.000244141 20L 0.0012207 16.0002L 0.998047 15.9945L 1.01147 19.0092L 15.9993 19.0067L 16.0081 6.93909L 1.00854 6.96326L 1.00854 15.9719L 0 15.9857L 0.00146484 3.01385L 2.9707 3.01508L 2.97681 4.97183L 6.00049 4.97031L 6.00684 3.00375L 10.9993 3.01587L 10.9993 4.97678L 14.0068 4.97678ZM 11.9944 0L 11.9944 4.01138L 12.9941 4.01138L 12.9941 0L 11.9944 0ZM 13.9988 15L 10.9988 15L 10.9988 17L 13.9988 17L 13.9988 15ZM 6.99878 15L 9.99878 15L 9.99878 17L 6.99878 17L 6.99878 15ZM 5.99878 15L 2.99878 15L 2.99878 17L 5.99878 17L 5.99878 15ZM 10.9988 12L 13.9988 12L 13.9988 14L 10.9988 14L 10.9988 12ZM 9.99878 12L 6.99878 12L 6.99878 14L 9.99878 14L 9.99878 12ZM 2.99878 12L 5.99878 12L 5.99878 14L 2.99878 14L 2.99878 12ZM 13.9988 9L 10.9988 9L 10.9988 11L 13.9988 11L 13.9988 9ZM 6.99878 9L 9.99878 9L 9.99878 11L 6.99878 11L 6.99878 9ZM 5.99878 9L 2.99878 9L 2.99878 11L 5.99878 11L 5.99878 9Z"/>
</defs>
</svg>
