<svg width="13" height="13" viewBox="0 0 13 13" version="1.1" xmlns="http://www.w3.org/2000/svg" xmlns:xlink="http://www.w3.org/1999/xlink">
<title>Combined Shape</title>
<desc>Created using Figma</desc>
<g id="Canvas" transform="translate(-2629 -6982)">
<g id="Combined Shape">
<use xlink:href="#path0_fill" transform="translate(2629 6982)" fill="#5A5A5A"/>
</g>
</g>
<defs>
<path id="path0_fill" fill-rule="evenodd" d="M 10 4L 12 4L 12 2L 10 2L 10 4ZM 1 12L 12 12L 12 6L 10.0271 6C 10.0271 6 10.375 9.98486 6.5 9.98486C 2.625 9.98486 2.98999 6 2.98999 6L 1 6L 1 12ZM 9 6.5C 9.0061 5.12598 7.88501 4.00195 6.5 4C 5.125 3.99805 4.01221 5.10498 4 6.5C 3.98804 7.86523 5.10498 8.99023 6.5 9C 7.87012 9.00977 8.99414 7.89014 9 6.5ZM 11.375 0C 11.725 0.02 1.625 0 1.625 0C 1.268 0.013 1.215 0.026 0.812 0C 0.542 0.208 0.162 0.606 0 1.625C 0.02 1.265 0 11.375 0 11.375C 0.012 11.728 0.025 11.777 0 12.188C 0.176 12.428 0.64 12.866 1.625 13C 1.275 12.98 11.375 13 11.375 13C 11.725 12.99 11.769 12.977 12.188 13C 12.408 12.84 12.863 12.367 13 11.375C 12.98 11.735 13 1.625 13 1.625C 12.987 1.268 12.974 1.215 13 0.812C 12.79 0.536 12.39 0.154 11.375 0Z"/>
</defs>
</svg>
