<svg width="30" height="29" viewBox="0 0 30 29" version="1.1" xmlns="http://www.w3.org/2000/svg" xmlns:xlink="http://www.w3.org/1999/xlink">
<title>aviasales</title>
<desc>Created using Figma</desc>
<g id="Canvas" transform="translate(-98 -12)">
<g id="aviasales">
<g id="Shape">
<use xlink:href="#path0_fill" transform="translate(98 12)" fill="#FFFFFF"/>
</g>
<g id="Shape">
<use xlink:href="#path1_fill" transform="translate(105.997 19)" fill="#FFFFFF"/>
</g>
<g id="Shape">
<use xlink:href="#path2_fill" transform="translate(108.99 26)" fill="#FFFFFF"/>
</g>
</g>
</g>
<defs>
<path id="path0_fill" fill-rule="evenodd" d="M 29.999 20L 30 24.252C 30 27.174 28.11 29 24.58 29L 4.916 29C 1.89 29 0.001 27.174 0.001 24.252L 0 20L 0.933 20C 3.136 20 4.995 18.445 4.995 16.418L 4.995 12.582C 4.995 10.555 3.136 9 0.933 9L 0 9L 0 4.748C 0 1.826 1.89 0 4.915 0L 24.58 0C 27.606 0 30 1.826 30 4.748L 30 9L 29.067 9C 26.865 9 25.007 10.555 25.007 12.582L 25.007 16.152C 25.007 18.179 26.866 20 29.067 20L 30 20L 29.999 20ZM 22.989 12.563C 22.989 8.918 19.852 6 16.029 6L 13.972 6C 10.149 6 7.012 8.92 7.012 12.563L 7.012 19.353C 7.012 22.995 10.149 26 13.972 26L 16.029 26C 19.852 26 22.989 22.995 22.989 19.352L 22.989 12.563Z"/>
<path id="path1_fill" fill-rule="evenodd" d="M 8.146 18L 5.849 18C 2.683 18 0 15.405 0 12.365L 0 5.55C 0 2.508 2.682 0 5.85 0L 8.145 0C 11.312 0 13.995 2.508 13.995 5.55L 13.995 12.365C 13.997 15.405 11.313 18 8.145 18L 8.146 18ZM 11.952 5.43C 11.952 3.49 10.184 2 7.981 2L 5.963 2C 3.761 2 1.993 3.49 1.993 5.43L 1.993 9.57C 1.993 11.51 3.761 13 5.963 13L 7.981 13C 10.184 13 11.952 11.51 11.952 9.57L 11.952 5.43Z"/>
<path id="path2_fill" fill-rule="evenodd" d="M 3.52001 5L 3.41001 5C 1.38001 5 5.40123e-06 3.926 5.40123e-06 1.828L 5.40123e-06 0.54C 5.40123e-06 0.54 -0.00699461 0 0.483005 0C 0.973005 0 0.973005 0.54 0.973005 0.54L 0.973005 1.828C 0.973005 3.388 1.91801 4.023 3.41001 4.023L 3.52001 4.023C 3.52001 4.023 3.99901 4.046 3.99901 4.521C 3.99701 4.995 3.51901 5 3.51901 5L 3.52001 5Z"/>
</defs>
</svg>
