<svg width="22" height="22" viewBox="0 0 22 22" version="1.1" xmlns="http://www.w3.org/2000/svg" xmlns:xlink="http://www.w3.org/1999/xlink">
<title>svg</title>
<desc>Created using Figma</desc>
<g id="Canvas" transform="translate(-2557 -763)">
<g id="svg">
<g id="Shape">
<use xlink:href="#path0_fill" transform="translate(2557 763.954)" fill="#A0B0B9"/>
</g>
</g>
</g>
<defs>
<path id="path0_fill" d="M 1.7842 3.09455C 2.8226 2.26046 4.0942 2.02324 5.4692 2.14377C 7.3975 2.30924 9.0508 3.0649 10.6194 3.98698L 10.9714 4.19742C 11.0187 4.03959 11.0594 3.90472 11.0979 3.7689C 11.4411 2.57324 12.0527 1.51342 13.2033 0.736722C 14.7763 -0.323104 16.7178 -0.187278 18.1863 0.810374C 16.2129 1.05524 14.8841 2.08924 13.6961 3.42837C 14.2901 3.35185 14.7961 3.27533 15.3021 3.22272C 16.3284 3.1175 17.3514 3.12898 18.3546 3.36333C 20.2246 3.80142 21.2982 4.89759 21.7096 6.49116C 21.8636 7.07942 21.9054 7.68872 21.9989 8.28942L 21.8999 8.32481C 21.7822 8.21672 21.6689 8.10863 21.5479 8.00246C 20.2972 6.88333 18.8386 6.06837 17.0357 5.78907C 15.9907 5.62646 14.9545 5.66185 13.9579 6.02437C 13.8072 6.07794 13.6675 6.15542 13.5267 6.22142C 16.0633 6.47011 17.941 7.63516 19.3809 9.34255C 20.8802 11.1188 20.9462 13.0271 19.7846 14.9688C 19.1939 15.9569 18.0796 17.1248 17.105 17.8116C 17.0764 17.4768 17.061 17.1573 17.0192 16.8407C 16.7475 14.7421 16.1535 12.7248 14.9215 10.8816C 14.3429 10.015 13.618 9.25742 12.5675 8.78107C 12.4531 8.72942 12.3343 8.68829 12.1715 8.6242C 12.155 8.78203 12.1352 8.91307 12.1297 9.04507C 12.0241 11.5158 11.7777 13.974 11.0924 16.3845C 10.7404 17.6279 10.2982 18.8456 9.5414 19.9599C 9.5161 19.9982 9.2598 20.2823 9.2598 20.2823C 8.8891 20.6993 8.096 21.0351 7.491 21.0332L 3.4595 21.0198C 2.2451 21.015 1.969 20.4076 2.8292 19.6682C 2.8292 19.6682 3.9072 18.7691 5.0314 17.714C 7.4492 15.4442 8.8616 12.7525 9.3764 9.70603C 9.4314 9.37698 9.4842 9.04603 9.5491 8.64907C 7.4811 9.28324 5.8751 10.3689 4.5683 11.8018C 3.2538 13.2442 2.4849 14.8703 2.4266 16.7307C 2.3903 16.7231 2.3551 16.725 2.3386 16.7116C 1.2881 15.7646 0.4653 14.7086 0.2178 13.3829C -0.0352 12.0151 0.3652 10.7687 1.276 9.65629C 2.706 7.90777 4.6453 6.79629 7.0873 6.36107C 7.3106 6.3209 7.5405 6.30368 7.7693 6.29029C 7.9926 6.27881 8.2181 6.28837 8.5107 6.28837C 8.1202 5.9249 7.6857 5.73168 7.2127 5.60924C 6.0555 5.31272 4.906 5.42272 3.7675 5.68577C 2.4079 6.00142 1.1605 6.51507 0 7.32907C 0.0726 5.70298 0.3795 4.21846 1.7842 3.09168L 1.7842 3.09455Z"/>
</defs>
</svg>
