<svg width="70" height="10" viewBox="0 0 70 10" version="1.1" xmlns="http://www.w3.org/2000/svg" xmlns:xlink="http://www.w3.org/1999/xlink">
<title>raiting</title>
<desc>Created using Figma</desc>
<g id="Canvas" transform="translate(-2456 -5857)">
<g id="raiting">
<g id="Star-1-Copy-2">
<use xlink:href="#path0_fill" transform="translate(2486 5857)" fill="#FFFFFF"/>
</g>
<g id="Star-1-Copy-3">
<use xlink:href="#path0_fill" transform="translate(2471 5857)" fill="#FFFFFF"/>
</g>
<g id="Star-1-Copy-4">
<use xlink:href="#path0_fill" transform="translate(2456 5857)" fill="#FFFFFF"/>
</g>
<g id="Star-1-Copy-2">
<use xlink:href="#path0_fill" transform="translate(2501 5857)" fill="#FFFFFF"/>
</g>
<g id="Mask">
<g id="path-2">
<use xlink:href="#path0_fill" transform="translate(2516 5857)" fill="#05739F"/>
</g>
</g>
<g id="Rectangle-255 Clipped">
<mask id="mask0_outline" mask-type="alpha">
<g id="path-2">
<use xlink:href="#path1_fill" transform="translate(2516 5857)" fill="#FFFFFF"/>
</g>
</mask>
<g id="Rectangle-255" mask="url(#mask0_outline)">
<use xlink:href="#path2_fill" transform="translate(2516 5857)" fill="#FFFFFF"/>
</g>
</g>
</g>
</g>
<defs>
<path id="path0_fill" d="M 5 8.2918L 1.90983 10L 2.5 6.38197L 0 3.81966L 3.45492 3.2918L 5 0L 6.54508 3.2918L 10 3.81966L 7.5 6.38197L 8.09017 10L 5 8.2918Z"/>
<path id="path1_fill" fill-rule="evenodd" d="M 5 8.2918L 1.90983 10L 2.5 6.38197L 0 3.81966L 3.45492 3.2918L 5 0L 6.54508 3.2918L 10 3.81966L 7.5 6.38197L 8.09017 10L 5 8.2918Z"/>
<path id="path2_fill" d="M 0 0L 6 0L 6 10L 0 10L 0 0Z"/>
</defs>
</svg>
