<svg width="18" height="32" viewBox="0 0 18 32" version="1.1" xmlns="http://www.w3.org/2000/svg" xmlns:xlink="http://www.w3.org/1999/xlink">
<title>Shape</title>
<desc>Created using Figma</desc>
<g id="Canvas" transform="translate(-2281 -4323)">
<g id="Shape">
<use xlink:href="#path0_fill" transform="matrix(1 2.44929e-16 -2.44929e-16 1 2281 4323)" fill="#5B5B5C" fill-opacity="0.2"/>
</g>
</g>
<defs>
<path id="path0_fill" d="M 17.6916 15.2624L 3.27839 0.320858C 3.07213 0.107252 2.83478 0 2.56688 0C 2.29887 0 2.06163 0.107252 1.85548 0.320858L 0.309282 1.92414C 0.102805 2.13786 0 2.38336 0 2.66165C 0 2.93994 0.102805 3.18545 0.309282 3.39916L 12.4643 16.0003L 0.309282 28.6017C 0.102805 28.8155 0 29.0614 0 29.3389C 0 29.6171 0.102805 29.863 0.309282 30.0768L 1.85558 31.6795C 2.06174 31.8934 2.29898 32 2.56699 32C 2.83489 32 3.07213 31.8932 3.27839 31.6795L 17.6908 16.7379C 17.8969 16.5242 18 16.2782 18 16.0003C 18 15.7225 17.8976 15.4765 17.6916 15.2624Z"/>
</defs>
</svg>
