<svg width="38" height="38" viewBox="0 0 38 38" version="1.1" xmlns="http://www.w3.org/2000/svg" xmlns:xlink="http://www.w3.org/1999/xlink">
<title>Group</title>
<desc>Created using Figma</desc>
<g id="Canvas" transform="translate(-1925 -4596)">
<g id="Group">
<g id="backgroundColor">
<use xlink:href="#path0_fill" transform="translate(1926 4597)" fill="#9B9B9B"/>
<use xlink:href="#path1_stroke" transform="translate(1926 4597)" fill="#979797"/>
</g>
<g id="vk">
<g id="Shape">
<use xlink:href="#path2_fill" transform="translate(1934.24 4609.25)" fill="#FFFFFF"/>
</g>
</g>
</g>
</g>
<defs>
<path id="path0_fill" fill-rule="evenodd" d="M 0 18C 0 8.05888 8.05888 0 18 0C 27.9411 0 36 8.05888 36 18C 36 27.9411 27.9411 36 18 36C 8.05888 36 0 27.9411 0 18Z"/>
<path id="path1_stroke" d="M 18 35.5C 8.33502 35.5 0.5 27.665 0.5 18L -0.5 18C -0.5 28.2173 7.78273 36.5 18 36.5L 18 35.5ZM 35.5 18C 35.5 27.665 27.665 35.5 18 35.5L 18 36.5C 28.2173 36.5 36.5 28.2173 36.5 18L 35.5 18ZM 18 0.5C 27.665 0.5 35.5 8.33502 35.5 18L 36.5 18C 36.5 7.78273 28.2173 -0.5 18 -0.5L 18 0.5ZM 18 -0.5C 7.78273 -0.5 -0.5 7.78273 -0.5 18L 0.5 18C 0.5 8.33502 8.33502 0.5 18 0.5L 18 -0.5Z"/>
<path id="path2_fill" fill-rule="evenodd" d="M 19.5454 10.1244C 19.521 10.0732 19.499 10.0317 19.4785 9.99658C 19.138 9.38293 18.4863 8.62927 17.5249 7.7361L 17.5044 7.71561L 17.4946 7.70585L 17.4839 7.6961L 17.4741 7.6961C 17.038 7.27902 16.762 6.99951 16.6449 6.85707C 16.4337 6.5839 16.3863 6.30732 16.502 6.0278C 16.5839 5.8161 16.8907 5.36927 17.4229 4.68732C 17.7024 4.32634 17.9244 4.0361 18.0873 3.81805C 19.2678 2.24878 19.779 1.24634 19.6224 0.810244L 19.5615 0.707805C 19.52 0.646829 19.4151 0.590732 19.2444 0.539512C 19.0737 0.488293 18.8551 0.479512 18.5893 0.513659L 15.6429 0.534146C 15.5951 0.517561 15.5268 0.518537 15.438 0.539024L 15.3049 0.570244L 15.2537 0.596098L 15.2127 0.626829C 15.1785 0.646341 15.141 0.682439 15.1005 0.734146C 15.0595 0.784878 15.0254 0.844878 14.998 0.913171C 14.6771 1.73805 14.3122 2.50488 13.9024 3.21366C 13.6507 3.63707 13.4185 4.0039 13.2073 4.31415C 12.9956 4.62439 12.8185 4.85317 12.6756 4.99951C 12.5322 5.14683 12.4024 5.26439 12.2868 5.35268C 12.1698 5.44146 12.082 5.47951 12.021 5.46488C 11.9595 5.45122 11.9015 5.43756 11.8468 5.42439C 11.7512 5.36341 11.6746 5.28 11.6176 5.17415C 11.559 5.06878 11.52 4.93512 11.499 4.77512C 11.4795 4.61415 11.4668 4.47659 11.4629 4.36049C 11.4595 4.24488 11.461 4.08049 11.4678 3.86927C 11.4746 3.65805 11.4785 3.51463 11.4785 3.44C 11.4785 3.18049 11.4834 2.89854 11.4932 2.5961C 11.5029 2.29171 11.5127 2.05171 11.519 1.87415C 11.5259 1.69707 11.5288 1.50976 11.5288 1.31122C 11.5288 1.11366 11.5171 0.958537 11.4932 0.845854C 11.4698 0.733659 11.4337 0.62439 11.3859 0.518049C 11.338 0.412683 11.2688 0.330732 11.1761 0.273171C 11.0844 0.214634 10.9702 0.16878 10.8346 0.134634C 10.4722 0.0526829 10.0117 0.00878049 9.45268 0.00146341C 8.18439 -0.0121951 7.36878 0.0697561 7.00683 0.247317C 6.86341 0.321463 6.73366 0.423902 6.61805 0.553171C 6.49512 0.703415 6.47805 0.785854 6.56634 0.799024C 6.9761 0.860976 7.26537 1.0078 7.43659 1.23951L 7.49756 1.36244C 7.54537 1.45024 7.59317 1.6078 7.64049 1.83268C 7.68829 2.05707 7.71854 2.30585 7.73219 2.57902C 7.76634 3.07659 7.76634 3.50293 7.73219 3.85805C 7.69902 4.21268 7.66634 4.48878 7.63561 4.68634C 7.60488 4.88439 7.55902 5.04439 7.49756 5.1678C 7.43659 5.28976 7.39512 5.36488 7.37415 5.3922C 7.35463 5.42 7.33707 5.4361 7.32341 5.44341C 7.23463 5.47756 7.14293 5.49512 7.04683 5.49512C 6.95171 5.49512 6.83561 5.44732 6.69854 5.35171C 6.56293 5.2561 6.42049 5.12488 6.27415 4.95756C 6.12781 4.79073 5.96195 4.55756 5.77805 4.25659C 5.59366 3.9561 5.40244 3.60195 5.20488 3.1922L 5.04098 2.89561C 4.93854 2.70537 4.79854 2.42732 4.62146 2.06146C 4.4439 1.69707 4.28732 1.34439 4.15073 1.00293C 4.09707 0.86 4.01415 0.750732 3.90488 0.676098L 3.85463 0.644878C 3.82049 0.618049 3.76585 0.588781 3.69073 0.557073C 3.6161 0.526829 3.53805 0.504878 3.45659 0.49122L 0.652683 0.512195C 0.366341 0.512195 0.172195 0.577073 0.0697561 0.706341L 0.0287805 0.768293C 0.0097561 0.802439 0 0.857561 0 0.932195C 0 1.0078 0.0195122 1.09951 0.0614634 1.20878C 0.47122 2.16976 0.915122 3.09756 1.39659 3.99073C 1.87756 4.88488 2.29512 5.60439 2.64927 6.14976C 3.00537 6.69512 3.36634 7.20976 3.73415 7.69366C 4.10293 8.17805 4.34683 8.48878 4.46585 8.62537C 4.58537 8.76195 4.67951 8.86341 4.74732 8.93171L 5.00341 9.17756C 5.16732 9.34146 5.40732 9.53756 5.72537 9.76537C 6.04244 9.99463 6.39366 10.219 6.77902 10.441C 7.16439 10.6624 7.6122 10.8434 8.12439 10.9834C 8.63561 11.1224 9.13415 11.1785 9.61805 11.1512L 10.7946 11.1512C 11.0327 11.1317 11.2141 11.0556 11.3361 10.9268L 11.3771 10.8756C 11.4049 10.8337 11.4307 10.7707 11.4541 10.6854C 11.4785 10.6005 11.4902 10.5063 11.4902 10.4039C 11.4834 10.1112 11.5049 9.84683 11.5566 9.61122C 11.6073 9.37707 11.6654 9.19951 11.7307 9.07951C 11.7956 8.96 11.8683 8.86 11.9502 8.77805C 12.0322 8.6961 12.0902 8.64634 12.1249 8.62976C 12.159 8.6122 12.1854 8.60049 12.2063 8.59366C 12.3702 8.53902 12.5624 8.5922 12.7844 8.7522C 13.0059 8.91317 13.2137 9.11024 13.4088 9.34585C 13.6029 9.58098 13.8366 9.84537 14.1088 10.1385C 14.382 10.4312 14.621 10.6493 14.8249 10.7922L 15.0298 10.9156C 15.1663 10.9976 15.3434 11.0727 15.5615 11.14C 15.78 11.2093 15.9712 11.2263 16.1346 11.1922L 18.7541 11.1507C 19.0127 11.1507 19.2141 11.1083 19.3571 11.0229C 19.5 10.9376 19.5849 10.8439 19.6122 10.742C 19.64 10.6395 19.6415 10.5239 19.6171 10.3937C 19.5927 10.2644 19.5693 10.1741 19.5463 10.1224L 19.5454 10.1244Z"/>
</defs>
</svg>
