<svg width="38" height="38" viewBox="0 0 38 38" version="1.1" xmlns="http://www.w3.org/2000/svg" xmlns:xlink="http://www.w3.org/1999/xlink">
<title>Group</title>
<desc>Created using Figma</desc>
<g id="Canvas" transform="translate(-1841 -4596)">
<g id="Group">
<g id="backgroundColor">
<use xlink:href="#path0_fill" transform="translate(1842 4597)" fill="#9B9B9B"/>
<use xlink:href="#path1_stroke" transform="translate(1842 4597)" fill="#979797"/>
</g>
<g id="twitter">
<g id="Shape">
<use xlink:href="#path2_fill" transform="translate(1850.27 4607.27)" fill="#FFFFFF"/>
</g>
</g>
</g>
</g>
<defs>
<path id="path0_fill" fill-rule="evenodd" d="M 0 18C 0 8.05888 8.05888 0 18 0C 27.9411 0 36 8.05888 36 18C 36 27.9411 27.9411 36 18 36C 8.05888 36 0 27.9411 0 18Z"/>
<path id="path1_stroke" d="M 18 35.5C 8.33502 35.5 0.5 27.665 0.5 18L -0.5 18C -0.5 28.2173 7.78273 36.5 18 36.5L 18 35.5ZM 35.5 18C 35.5 27.665 27.665 35.5 18 35.5L 18 36.5C 28.2173 36.5 36.5 28.2173 36.5 18L 35.5 18ZM 18 0.5C 27.665 0.5 35.5 8.33502 35.5 18L 36.5 18C 36.5 7.78273 28.2173 -0.5 18 -0.5L 18 0.5ZM 18 -0.5C 7.78273 -0.5 -0.5 7.78273 -0.5 18L 0.5 18C 0.5 8.33502 8.33502 0.5 18 0.5L 18 -0.5Z"/>
<path id="path2_fill" fill-rule="evenodd" d="M 19.2114 1.84757C 18.5032 2.16108 17.7443 2.37351 16.9465 2.46919C 17.7611 1.98108 18.3859 1.20865 18.68 0.288108C 17.9178 0.74 17.0746 1.06811 16.1773 1.24486C 15.4584 0.478378 14.4341 0 13.3005 0C 11.1238 0 9.36 1.76486 9.36 3.94054C 9.36 4.25027 9.39405 4.55135 9.46108 4.83946C 6.18541 4.67459 3.28162 3.10595 1.33784 0.721622C 0.998378 1.30378 0.803784 1.98108 0.803784 2.7027C 0.803784 4.07027 1.49946 5.27568 2.5573 5.98378C 1.91135 5.96216 1.30324 5.78595 0.771892 5.49081L 0.771892 5.53946C 0.771892 7.44973 2.13027 9.04216 3.93297 9.40432C 3.60324 9.49459 3.25459 9.5427 2.89514 9.5427C 2.64108 9.5427 2.39459 9.51838 2.15351 9.47243C 2.65514 11.0378 4.11027 12.1778 5.83459 12.2092C 4.48595 13.2659 2.78703 13.8957 0.940541 13.8957C 0.621622 13.8957 0.308108 13.8773 0 13.8405C 1.74378 14.9595 3.81514 15.6119 6.04162 15.6119C 13.2903 15.6119 17.2551 9.60649 17.2551 4.3973C 17.2551 4.22703 17.2514 4.05676 17.2443 3.88757C 18.0135 3.33243 18.6822 2.63784 19.2103 1.84757"/>
</defs>
</svg>
