<svg width="15" height="12" viewBox="0 0 15 12" version="1.1" xmlns="http://www.w3.org/2000/svg" xmlns:xlink="http://www.w3.org/1999/xlink">
<title>Path</title>
<desc>Created using Figma</desc>
<g id="Canvas" transform="translate(-2413 -7010)">
<g id="Path">
<use xlink:href="#path0_fill" transform="translate(2413 7010)" fill="#4A4A4A"/>
</g>
</g>
<defs>
<path id="path0_fill" fill-rule="evenodd" d="M 7.305 3.027C 7.305 3.264 7.332 3.495 7.385 3.717C 4.827 3.59 2.559 2.384 1.041 0.551C 0.776 0.999 0.625 1.519 0.625 2.075C 0.625 3.125 1.168 4.053 1.995 4.595C 1.489 4.58 1.015 4.445 0.6 4.217L 0.6 4.255C 0.6 5.723 1.66 6.947 3.068 7.225C 2.813 7.295 2.538 7.332 2.258 7.332C 2.062 7.332 1.868 7.312 1.678 7.278C 2.073 8.484 3.208 9.358 4.556 9.384C 3.503 10.197 2.176 10.681 0.734 10.681C 0.486 10.681 0.241 10.668 0 10.641C 1.359 11.497 2.977 11.997 4.715 11.997C 10.375 11.997 13.471 7.381 13.471 3.377C 13.471 3.247 13.468 3.117 13.461 2.987C 14.064 2.559 14.585 2.025 14.998 1.417C 14.448 1.657 13.854 1.821 13.231 1.895C 13.867 1.52 14.355 0.925 14.585 0.218C 13.99 0.568 13.331 0.818 12.63 0.958C 12.07 0.368 11.27 0 10.386 0C 8.686 0 7.309 1.357 7.309 3.03L 7.305 3.027Z"/>
</defs>
</svg>
