<svg width="16" height="10" viewBox="0 0 16 10" version="1.1" xmlns="http://www.w3.org/2000/svg" xmlns:xlink="http://www.w3.org/1999/xlink">
<title>Path</title>
<desc>Created using Figma</desc>
<g id="Canvas" transform="translate(-2413 -6984)">
<g id="Path">
<use xlink:href="#path0_fill" transform="translate(2413 6984)" fill="#5B5B5C"/>
</g>
</g>
<defs>
<path id="path0_fill" fill-rule="evenodd" d="M 8.78295 8.975C 8.78295 8.975 9.07295 8.945 9.21995 8.787C 9.35595 8.643 9.34995 8.373 9.34995 8.373C 9.34995 8.373 9.33295 7.108 9.92795 6.921C 10.515 6.741 11.268 8.147 12.068 8.688C 12.673 9.098 13.132 9.008 13.132 9.008L 15.268 8.978C 15.268 8.978 16.386 8.91 15.856 8.043C 15.813 7.973 15.546 7.403 14.266 6.233C 12.926 5.006 13.106 5.203 14.721 3.083C 15.707 1.793 16.061 0.689 15.941 0.353C 15.824 0.029 15.101 0.113 15.101 0.113L 12.695 0.129C 12.695 0.129 12.517 0.105 12.385 0.183C 12.255 0.258 12.172 0.436 12.172 0.436C 12.172 0.436 11.826 1.75 11.32 2.6C 10.248 4.393 9.81995 4.488 9.64495 4.376C 9.23795 4.116 9.33895 3.334 9.33895 2.776C 9.33895 1.039 9.60695 0.314 8.81895 0.126C 8.55695 0.066 8.36495 0.023 7.69595 0.016C 6.83395 0.008 6.10995 0.02 5.69695 0.218C 5.42395 0.35 5.21295 0.645 5.34095 0.662C 5.50095 0.682 5.86095 0.757 6.05095 1.012C 6.29895 1.344 6.29095 2.087 6.29095 2.087C 6.29095 2.087 6.43095 4.133 5.96095 4.387C 5.63495 4.561 5.19095 4.207 4.23495 2.577C 3.74395 1.743 3.37595 0.41 3.37595 0.41C 3.37595 0.41 3.30395 0.24 3.17595 0.148C 3.02395 0.035 2.80995 0 2.80995 0L 0.519953 0.015C 0.519953 0.015 0.179953 0.025 0.0529527 0.17C -0.0600473 0.303 0.0429527 0.574 0.0429527 0.574C 0.0429527 0.574 1.83295 5.114 3.85895 7.194C 5.71395 9.1 7.82395 8.974 7.82395 8.974L 8.77995 8.974L 8.78295 8.975Z"/>
</defs>
</svg>
