<svg width="38" height="38" viewBox="0 0 38 38" version="1.1" xmlns="http://www.w3.org/2000/svg" xmlns:xlink="http://www.w3.org/1999/xlink">
<title>Group</title>
<desc>Created using Figma</desc>
<g id="Canvas" transform="translate(-1967 -4596)">
<g id="Group">
<g id="backgroundColor">
<use xlink:href="#path0_fill" transform="translate(1968 4597)" fill="#9B9B9B"/>
<use xlink:href="#path1_stroke" transform="translate(1968 4597)" fill="#979797"/>
</g>
<g id="rss">
<g id="Shape">
<use xlink:href="#path2_fill" transform="translate(1979.18 4607.04)" fill="#FFFFFF"/>
</g>
</g>
</g>
</g>
<defs>
<path id="path0_fill" fill-rule="evenodd" d="M 0 18C 0 8.05888 8.05888 0 18 0C 27.9411 0 36 8.05888 36 18C 36 27.9411 27.9411 36 18 36C 8.05888 36 0 27.9411 0 18Z"/>
<path id="path1_stroke" d="M 18 35.5C 8.33502 35.5 0.5 27.665 0.5 18L -0.5 18C -0.5 28.2173 7.78273 36.5 18 36.5L 18 35.5ZM 35.5 18C 35.5 27.665 27.665 35.5 18 35.5L 18 36.5C 28.2173 36.5 36.5 28.2173 36.5 18L 35.5 18ZM 18 0.5C 27.665 0.5 35.5 8.33502 35.5 18L 36.5 18C 36.5 7.78273 28.2173 -0.5 18 -0.5L 18 0.5ZM 18 -0.5C 7.78273 -0.5 -0.5 7.78273 -0.5 18L 0.5 18C 0.5 8.33502 8.33502 0.5 18 0.5L 18 -0.5Z"/>
<path id="path2_fill" fill-rule="evenodd" d="M 10.623 4.24145C 5.88704 -0.521551 0.0140381 0.0184489 0.0140381 0.0184489L 0.0250381 2.68145C 0.0250381 2.68145 4.94704 2.62445 8.57404 6.27045C 12.2 9.91645 12.031 14.5264 12.031 14.5264L 14.922 14.5204C 14.921 14.5194 15.358 9.00345 10.623 4.24145ZM 0.015 5.17737C 0.017 6.27637 0.01 6.89837 0 7.82337C 1.581 7.89137 3.663 7.93836 5.191 9.65137C 6.719 11.3644 6.76 12.6514 7.108 14.5184C 8.416 14.5184 8.741 14.5104 9.818 14.4904C 9.671 12.5084 8.835 9.70137 7.15 7.88037C 5.464 6.05937 2.066 5.16537 0.015 5.17737ZM 2.03401 10.4844C 0.91601 10.4844 0.0100098 11.3904 0.0100098 12.5084C 0.0100098 13.6264 0.91601 14.5324 2.03401 14.5324C 3.15201 14.5324 4.05801 13.6264 4.05801 12.5084C 4.05801 11.3904 3.15201 10.4844 2.03401 10.4844Z"/>
</defs>
</svg>
